<svg width="64" height="64" viewBox="0 0 64 64" fill="none" xmlns="http://www.w3.org/2000/svg">
<path d="M53.3333 50.6667C53.3333 50.6667 11.3739 50.6667 10.6667 50.6667C9.95942 50.6667 8 50.6667 8 50.6667C8 50.6667 8 48.7072 8 48V10.6667C8 9.95942 8 8 8 8C8 8 9.95942 8 10.6667 8H53.3333C54.0406 8 56 8 56 8C56 8 56 9.95942 56 10.6667V48C56 48.7072 56 50.6667 56 50.6667C56 50.6667 54.0406 50.6667 53.3333 50.6667ZM21.3333 50.6667H16V56H21.3333V50.6667ZM42.6667 56H48V50.6667H42.6667V56Z" fill="#BFEAF9"/>
<path fill-rule="evenodd" clip-rule="evenodd" d="M7.66667 5V7.66667H5V5H7.66667ZM10.3333 10.3333V47.6667H52.9995C52.9998 47.6667 53 47.6667 53 50.3333C53 53 52.9998 53 52.9995 53H50.3333V58.3333H39.6667V53H23.6667V58.3333H13V53H5V7.66667H7.66667V5H58.3333L58.3333 53H52.9995L53 50.3333V10.3333H10.3333Z" fill="#BFEAF9"/>
<path fill-rule="evenodd" clip-rule="evenodd" d="M34.6667 17.3333V21.0849C34.8858 21.1558 35.1027 21.2377 35.3166 21.3264C36.9002 21.9823 38.2538 23.0931 39.2061 24.5184C39.6526 25.1867 40.0016 25.9101 40.2462 26.6666H44V32H40.2462C39.8279 33.2933 39.1073 34.4825 38.1283 35.4616C37.1492 36.4406 35.96 37.1613 34.6667 37.5795V41.3333H29.3333V37.5817C28.5768 37.3371 27.8534 36.9859 27.1851 36.5394C25.7598 35.5871 24.649 34.2335 23.993 32.6499C23.9044 32.436 23.8247 32.2192 23.7538 32H20V26.6666H23.7516C24.1722 25.366 24.8984 24.1784 25.8717 23.2051C26.8451 22.2317 28.0327 21.5077 29.3333 21.0871V17.3333H34.6667ZM33.2756 26.2537C32.8704 26.0859 32.438 26.0005 32.0036 26C32.0012 26 31.9988 26 31.9963 26C31.7802 26.0002 31.5637 26.0215 31.3497 26.064C30.7031 26.1926 30.1092 26.5101 29.643 26.9763C29.1768 27.4425 28.8593 28.0364 28.7307 28.683C28.6882 28.897 28.6669 29.1136 28.6667 29.3296C28.6667 29.3321 28.6667 29.3345 28.6667 29.3369C28.6671 29.7714 28.7525 30.2037 28.9204 30.6089C29.1727 31.218 29.5999 31.7386 30.1481 32.1049C30.6963 32.4711 31.3407 32.6666 32 32.6666C32.8841 32.6666 33.7319 32.3155 34.357 31.6903C34.9821 31.0652 35.3333 30.2174 35.3333 29.3333C35.3333 28.674 35.1378 28.0296 34.7716 27.4814C34.4053 26.9332 33.8847 26.506 33.2756 26.2537Z" fill="#30BBEC"/>
</svg>
