<svg width="32" height="32" viewBox="0 0 32 32" fill="none" xmlns="http://www.w3.org/2000/svg">
<path d="M29.3334 27.6403L28.0001 22.8403C28.8899 21.384 29.3519 19.7068 29.3334 18.0003C29.2957 16.337 28.8322 14.7111 27.9872 13.2778C27.1422 11.8446 25.9439 10.6519 24.5067 9.81364C24.2863 9.6646 24.0262 9.58496 23.7601 9.58496C23.4939 9.58496 23.2339 9.6646 23.0134 9.81364C22.8114 9.9651 22.6565 10.1708 22.5668 10.4069C22.4771 10.6429 22.4563 10.8996 22.5067 11.147C22.6255 11.6446 22.6793 12.1555 22.6667 12.667C22.6667 16.667 18.7734 20.0003 14.0001 20.0003C12.6224 19.9926 11.261 19.7021 10.0001 19.147C9.83002 19.0716 9.64608 19.0327 9.46008 19.0327C9.27408 19.0327 9.09014 19.0716 8.92008 19.147L8.00008 19.507C7.68791 19.6451 7.44062 19.8977 7.30915 20.2127C7.17768 20.5278 7.17205 20.8812 7.29341 21.2003C8.18508 23.2722 9.67883 25.0284 11.5809 26.2409C13.4829 27.4535 15.7054 28.0664 17.9601 28.0003C19.5687 28.0141 21.1654 27.7246 22.6667 27.147L27.5467 29.227C27.6904 29.2888 27.8439 29.325 28.0001 29.3336C28.3242 29.3332 28.637 29.2147 28.8801 29.0003C29.0773 28.8403 29.2248 28.6273 29.3051 28.3864C29.3854 28.1455 29.3952 27.8866 29.3334 27.6403Z" fill="#A6512A"/>
<path d="M25.0934 10.667C24.0267 6.05366 19.3601 2.66699 14.0001 2.66699C7.74675 2.66699 2.66675 7.14699 2.66675 12.667C2.67221 14.3813 3.16216 16.0591 4.08008 17.507L2.74675 22.307C2.68413 22.5445 2.68835 22.7947 2.75893 23.03C2.82952 23.2653 2.96372 23.4765 3.14675 23.6403C3.37904 23.8584 3.68176 23.9861 4.00008 24.0003C4.17881 24 4.35565 23.9637 4.52008 23.8937L9.40008 21.8137C10.868 22.3783 12.4273 22.6676 14.0001 22.667C20.2534 22.667 25.3334 18.187 25.3334 12.667C25.3343 11.9931 25.2537 11.3215 25.0934 10.667Z" fill="#DD6C38"/>
</svg>
