<svg width="64" height="64" viewBox="0 0 64 64" fill="none" xmlns="http://www.w3.org/2000/svg">
<g clip-path="url(#clip0_503_19397)">
<path d="M34.9803 5.06419C33.3903 3.28817 30.6097 3.28817 29.0198 5.06419L23.4294 11.3088L15.0609 10.8462C12.6808 10.7146 10.7146 12.6808 10.8462 15.0609L11.3088 23.4294L5.06419 29.0198C3.28817 30.6097 3.28817 33.3903 5.06419 34.9803L11.3088 40.5706L10.8462 48.9392C10.7146 51.3193 12.6808 53.2855 15.0609 53.1539L23.4294 52.6913L29.0198 58.9359C30.6097 60.7119 33.3903 60.7119 34.9803 58.9359L40.5706 52.6913L48.9392 53.1539C51.3193 53.2855 53.2855 51.3193 53.1539 48.9392L52.6913 40.5706L58.9359 34.9803C60.7119 33.3903 60.7119 30.6097 58.9359 29.0198L52.6913 23.4294L53.1539 15.0609C53.2855 12.6808 51.3193 10.7146 48.9392 10.8462L40.5706 11.3088L34.9803 5.06419Z" fill="#CBD4E9"/>
<path fill-rule="evenodd" clip-rule="evenodd" d="M21.3333 25.3333C21.3333 23.1242 23.1241 21.3333 25.3333 21.3333H25.3599C27.5691 21.3333 29.3599 23.1242 29.3599 25.3333V25.36C29.3599 27.5691 27.5691 29.36 25.3599 29.36H25.3333C23.1241 29.36 21.3333 27.5691 21.3333 25.36V25.3333Z" fill="#5874B7"/>
<path fill-rule="evenodd" clip-rule="evenodd" d="M34.6667 38.6667C34.6667 36.4575 36.4576 34.6667 38.6667 34.6667H38.6934C40.9026 34.6667 42.6934 36.4575 42.6934 38.6667V38.6934C42.6934 40.9025 40.9026 42.6934 38.6934 42.6934H38.6667C36.4576 42.6934 34.6667 40.9025 34.6667 38.6934V38.6667Z" fill="#5874B7"/>
<path fill-rule="evenodd" clip-rule="evenodd" d="M41.6971 22.303C42.3599 22.9657 43.3942 24 43.3942 24L24.0001 43.3941L22.303 41.6971L20.606 40.0001L40.0001 20.6059C40.0001 20.6059 41.0344 21.6402 41.6971 22.303Z" fill="#5874B7"/>
</g>
<defs>
<clipPath id="clip0_503_19397">
<rect width="64" height="64" fill="white"/>
</clipPath>
</defs>
</svg>
