<svg width="32" height="32" viewBox="0 0 32 32" fill="none" xmlns="http://www.w3.org/2000/svg">
<path d="M26.6667 9.33301H5.33341C3.86066 9.33301 2.66675 10.5269 2.66675 11.9997V26.6663C2.66675 28.1391 3.86066 29.333 5.33341 29.333H26.6667C28.1395 29.333 29.3334 28.1391 29.3334 26.6663V11.9997C29.3334 10.5269 28.1395 9.33301 26.6667 9.33301Z" fill="#3E4095"/>
<path d="M9.33342 29.333H5.33341C4.62617 29.333 3.94789 29.0521 3.4478 28.552C2.9477 28.0519 2.66675 27.3736 2.66675 26.6664V11.9997C2.66675 11.2924 2.9477 10.6142 3.4478 10.1141C3.94789 9.61397 4.62617 9.33302 5.33341 9.33302H9.33342V29.333ZM27.6134 6.78635L18.8001 15.613C18.5446 15.8567 18.2064 15.9948 17.8534 15.9997H16.0001C15.6465 15.9997 15.3073 15.8592 15.0573 15.6092C14.8072 15.3591 14.6667 15.02 14.6667 14.6664V12.813C14.6717 12.46 14.8098 12.1219 15.0534 11.8664L23.8801 3.05302C24.1293 2.80872 24.4644 2.67188 24.8134 2.67188C25.1624 2.67188 25.4975 2.80872 25.7467 3.05302L27.6134 4.91968C27.8577 5.16892 27.9946 5.50401 27.9946 5.85302C27.9946 6.20202 27.8577 6.53711 27.6134 6.78635Z" fill="#2F3070"/>
</svg>
