<svg width="35" height="24" viewBox="0 0 35 24" fill="none" xmlns="http://www.w3.org/2000/svg">
<g clip-path="url(#clip0_1635_8048)">
<path d="M2.624 18H1.152V6.544H2.944L8.512 15.456H8.576L8.512 13.248V6.544H9.984V18H8.448L2.624 8.656H2.56L2.624 10.864V18ZM23.1604 12.736C23.1604 14.336 22.6857 15.6107 21.7364 16.56C20.6697 17.6907 19.267 18.256 17.5284 18.256C15.8644 18.256 14.4564 17.68 13.3044 16.528C12.1524 15.376 11.5764 13.9573 11.5764 12.272C11.5764 10.5867 12.1524 9.168 13.3044 8.016C14.4564 6.864 15.8644 6.288 17.5284 6.288C18.371 6.288 19.1657 6.43733 19.9124 6.736C20.659 7.03467 21.2724 7.456 21.7524 8L20.6964 9.056C20.3444 8.62933 19.8857 8.29867 19.3204 8.064C18.7657 7.81867 18.1684 7.696 17.5284 7.696C16.2804 7.696 15.2244 8.128 14.3604 8.992C13.507 9.86667 13.0804 10.96 13.0804 12.272C13.0804 13.584 13.507 14.6773 14.3604 15.552C15.2244 16.416 16.2804 16.848 17.5284 16.848C18.6697 16.848 19.619 16.528 20.3764 15.888C21.1337 15.248 21.571 14.368 21.6884 13.248H17.5284V11.872H23.0804C23.1337 12.1707 23.1604 12.4587 23.1604 12.736ZM26.4209 18H24.9489V6.544H26.7409L32.3089 15.456H32.3729L32.3089 13.248V6.544H33.7809V18H32.2449L26.4209 8.656H26.3569L26.4209 10.864V18Z" fill="#606062"/>
</g>
<defs>
<clipPath id="clip0_1635_8048">
<rect width="35" height="24" fill="white"/>
</clipPath>
</defs>
</svg>
