<svg width="32" height="32" viewBox="0 0 32 32" fill="none" xmlns="http://www.w3.org/2000/svg">
<g clip-path="url(#clip0_503_27872)">
<path d="M12.0531 18.0789L10.8 18.0234V29.3332V31.4999L12.6657 30.3317L16 28.1088L19.3344 30.3317L21.2 31.4999V29.3332V18.0234L19.947 18.0789C18.8813 18.126 17.8738 18.6127 17.1732 19.436L17.1171 19.502C16.5314 20.1903 15.4687 20.1903 14.883 19.502L14.8269 19.436C14.1263 18.6127 13.1188 18.126 12.0531 18.0789Z" fill="#CA9E22"/>
<path d="M13.7088 2.65848C14.9101 1.24665 17.0901 1.24665 18.2914 2.65848L18.3548 2.73295C18.9814 3.46939 19.9238 3.85975 20.8876 3.7821L20.9851 3.77425C22.8329 3.62539 24.3743 5.16686 24.2255 7.01461L24.2176 7.11208C24.14 8.07592 24.5303 9.01833 25.2668 9.64496L25.3412 9.70833C26.7531 10.9096 26.7531 13.0896 25.3412 14.2909L25.2668 14.3543C24.5303 14.9809 24.14 15.9233 24.2176 16.8871L24.2255 16.9846C24.3743 18.8324 22.8328 20.3738 20.9851 20.225L20.8876 20.2171C20.7621 20.207 20.637 20.2048 20.5128 20.2103C19.6837 20.247 18.8998 20.6257 18.3547 21.2663L18.2914 21.3407C17.0901 22.7526 14.9101 22.7526 13.7088 21.3407L13.6454 21.2663C13.1004 20.6257 12.3165 20.247 11.4874 20.2103C11.3632 20.2048 11.2381 20.207 11.1126 20.2171L11.0151 20.225C9.16734 20.3738 7.62588 18.8324 7.77474 16.9846L7.78259 16.8871C7.86024 15.9233 7.46988 14.9809 6.73344 14.3543L6.65896 14.2909C5.24714 13.0896 5.24714 10.9096 6.65896 9.70833L6.73344 9.64496C7.46988 9.01833 7.86024 8.07592 7.78259 7.11208L7.77474 7.01461C7.62588 5.16685 9.16734 3.62539 11.0151 3.77425L11.1126 3.7821C12.0764 3.85975 13.0188 3.46939 13.6454 2.73295L13.7088 2.65848Z" fill="#FDC62B"/>
<path fill-rule="evenodd" clip-rule="evenodd" d="M19.5833 9.75001L20.5 10.5304L15.5152 15.5152C15.2902 15.7402 14.6667 16.3539 14.6667 16.3539C14.6667 16.3539 14.0432 15.7402 13.8182 15.5152L11.553 13.25L12.4848 12.4848L13.4471 11.75L14.6667 12.9696L18.6363 9L19.5833 9.75001Z" fill="#FFFCF4"/>
</g>
<defs>
<clipPath id="clip0_503_27872">
<rect width="32" height="32" fill="white"/>
</clipPath>
</defs>
</svg>
