<svg width="24" height="24" viewBox="0 0 24 24" fill="none" xmlns="http://www.w3.org/2000/svg">
<path fill-rule="evenodd" clip-rule="evenodd" d="M16.6569 15.2426L22.4142 21L21 22.4142L15.2427 16.6569L16.6569 15.2426Z" fill="#EDB094"/>
<path fill-rule="evenodd" clip-rule="evenodd" d="M11 4C7.13401 4 4 7.13401 4 11C4 14.866 7.13401 18 11 18C12.9333 18 14.6819 17.2176 15.9497 15.9497C17.2176 14.6819 18 12.9333 18 11C18 7.13401 14.866 4 11 4ZM2 11C2 6.02944 6.02944 2 11 2C15.9706 2 20 6.02944 20 11C20 13.485 18.9915 15.7364 17.364 17.364C15.7364 18.9915 13.485 20 11 20C6.02944 20 2 15.9706 2 11Z" fill="#DD6C38"/>
</svg>
