<svg width="64" height="64" viewBox="0 0 64 64" fill="none" xmlns="http://www.w3.org/2000/svg">
<path d="M50.6664 13.3334V1.56213L37.3331 14.8955V22.8955L31.4475 28.7811C31.4475 28.7811 29.5613 30.6666 31.4473 32.5523C33.3334 34.4381 35.2187 32.5523 35.2187 32.5523L41.1043 26.6667H49.1043L62.4376 13.3334H50.6664Z" fill="#DD6C38"/>
<path fill-rule="evenodd" clip-rule="evenodd" d="M17.1847 9.82752C21.57 6.89735 26.7258 5.33337 31.9999 5.33337H35.5466V10.6667H31.9999C27.7806 10.6667 23.656 11.9179 20.1478 14.262C16.6395 16.6062 13.9052 19.938 12.2905 23.8361C10.6758 27.7343 10.2534 32.0237 11.0765 36.162C11.8997 40.3002 13.9315 44.1015 16.915 47.085C19.8985 50.0685 23.6997 52.1003 27.838 52.9235C31.9763 53.7466 36.2657 53.3241 40.1638 51.7095C44.062 50.0948 47.3938 47.3605 49.738 43.8522C52.0821 40.344 53.3333 36.2194 53.3333 32V28.4534H58.6666V32C58.6666 37.2742 57.1026 42.4299 54.1725 46.8152C51.2423 51.2006 47.0775 54.6185 42.2048 56.6368C37.3321 58.6552 31.9704 59.1833 26.7975 58.1543C21.6247 57.1254 16.8731 54.5856 13.1437 50.8562C9.41435 47.1268 6.8746 42.3753 5.84566 37.2024C4.81672 32.0296 5.34481 26.6678 7.36314 21.7951C9.38148 16.9225 12.7994 12.7577 17.1847 9.82752Z" fill="#F0BDA5"/>
<path fill-rule="evenodd" clip-rule="evenodd" d="M32.48 21.0119L29.8673 21.5459C27.9795 21.9318 26.2315 22.8218 24.8089 24.1214C23.3864 25.4211 22.3424 27.0817 21.7879 28.9271C21.2335 30.7724 21.1892 32.7335 21.6598 34.602C22.1305 36.4704 23.0985 38.1765 24.4609 39.539C25.8234 40.9015 27.5295 41.8695 29.398 42.3401C31.2665 42.8108 33.2275 42.7665 35.0729 42.212C36.9182 41.6576 38.5789 40.6136 39.8785 39.191C41.1781 37.7684 42.0681 36.0204 42.454 34.1326L42.988 31.52L48.2133 32.588L47.6793 35.2006C47.1005 38.0324 45.7655 40.6544 43.8161 42.7883C41.8666 44.9221 39.3756 46.4881 36.6076 47.3198C33.8396 48.1515 30.898 48.2179 28.0953 47.5119C25.2926 46.8059 22.7334 45.354 20.6897 43.3102C18.646 41.2665 17.194 38.7074 16.4881 35.9047C15.7821 33.102 15.8485 30.1603 16.6802 27.3923C17.5119 24.6243 19.0778 22.1333 21.2117 20.1839C23.3455 18.2345 25.9676 16.8994 28.7993 16.3206L31.412 15.7866L32.48 21.0119Z" fill="#F0BDA5"/>
</svg>
