<svg width="32" height="32" viewBox="0 0 32 32" fill="none" xmlns="http://www.w3.org/2000/svg">
<rect x="1" y="1" width="30" height="30" rx="15" fill="white"/>
<rect x="1" y="1" width="30" height="30" rx="15" stroke="#DD6C38" stroke-width="2"/>
<path d="M19.356 18.896C19.356 19.856 18.9987 20.656 18.284 21.296C17.58 21.936 16.7053 22.256 15.66 22.256C14.8387 22.256 14.0973 22.0107 13.436 21.52C12.764 21.008 12.3107 20.3413 12.076 19.52L13.42 18.96C13.5907 19.568 13.868 20.0373 14.252 20.368C14.6467 20.688 15.116 20.848 15.66 20.848C16.2573 20.848 16.7747 20.6613 17.212 20.288C17.6387 19.904 17.852 19.44 17.852 18.896C17.852 18.352 17.628 17.8933 17.18 17.52C16.7427 17.1467 16.2147 16.96 15.596 16.96H14.652V15.584H15.484C16.0707 15.584 16.5507 15.424 16.924 15.104C17.2973 14.7733 17.484 14.3467 17.484 13.824C17.484 13.344 17.308 12.9547 16.956 12.656C16.604 12.3573 16.14 12.208 15.564 12.208C14.636 12.208 14.0013 12.6827 13.66 13.632L12.3 13.056C12.5453 12.384 12.956 11.84 13.532 11.424C14.108 11.008 14.7853 10.8 15.564 10.8C16.5347 10.8 17.3507 11.088 18.012 11.664C18.6627 12.2187 18.988 12.9387 18.988 13.824C18.988 14.88 18.4973 15.664 17.516 16.176V16.24C18.092 16.4853 18.54 16.8427 18.86 17.312C19.1907 17.7813 19.356 18.3093 19.356 18.896Z" fill="#DD6C38"/>
</svg>
