<svg width="32" height="32" viewBox="0 0 32 32" fill="none" xmlns="http://www.w3.org/2000/svg">
<rect x="1" y="1" width="30" height="30" rx="15" fill="white"/>
<rect x="1" y="1" width="30" height="30" rx="15" stroke="#DD6C38" stroke-width="2"/>
<path d="M19.116 20.592V22H12.14V20.528L14.972 17.664C15.9213 16.6933 16.5773 15.968 16.94 15.488C17.3027 14.9973 17.484 14.4853 17.484 13.952C17.484 13.472 17.2973 13.0613 16.924 12.72C16.5507 12.3787 16.0707 12.208 15.484 12.208C14.9827 12.208 14.5507 12.3573 14.188 12.656C13.8253 12.9547 13.5907 13.3173 13.484 13.744L12.14 13.2C12.3533 12.528 12.764 11.9627 13.372 11.504C13.98 11.0347 14.6947 10.8 15.516 10.8C16.508 10.8 17.3347 11.104 17.996 11.712C18.6573 12.32 18.988 13.0667 18.988 13.952C18.988 15.008 18.4067 16.1493 17.244 17.376L14.044 20.592H19.116Z" fill="#DD6C38"/>
</svg>
