<svg width="32" height="32" viewBox="0 0 32 32" fill="none" xmlns="http://www.w3.org/2000/svg">
<path d="M28 18.667V5.33366C28 4.62641 27.719 3.94814 27.219 3.44804C26.7189 2.94794 26.0406 2.66699 25.3333 2.66699H6.66667C5.95942 2.66699 5.28115 2.94794 4.78105 3.44804C4.28095 3.94814 4 4.62641 4 5.33366V8.00033C4 8.35395 4.14048 8.69309 4.39052 8.94313C4.64057 9.19318 4.97971 9.33366 5.33333 9.33366H14.6667C15.7275 9.33366 16.7449 9.75509 17.4951 10.5052C18.2452 11.2554 18.6667 12.2728 18.6667 13.3337V22.667C18.6667 23.0206 18.8071 23.3598 19.0572 23.6098C19.3072 23.8598 19.6464 24.0003 20 24.0003H26.6667C27.3739 24.0003 28.0522 23.7194 28.5523 23.2193C29.0524 22.7192 29.3333 22.0409 29.3333 21.3337V20.0003C29.3333 19.6467 29.1929 19.3076 28.9428 19.0575C28.6928 18.8075 28.3536 18.667 28 18.667Z" fill="#465D92"/>
<path d="M29.3334 20.0003V21.3337C29.3334 22.0409 29.0525 22.7192 28.5524 23.2193C28.0523 23.7194 27.374 24.0003 26.6667 24.0003H20.0001C19.6465 24.0003 19.3073 23.8599 19.0573 23.6098C18.8072 23.3598 18.6667 23.0206 18.6667 22.667V18.667H28.0001C28.3537 18.667 28.6928 18.8075 28.9429 19.0575C29.1929 19.3076 29.3334 19.6467 29.3334 20.0003ZM2.66675 13.3337V26.667C2.66675 27.3742 2.9477 28.0525 3.4478 28.5526C3.94789 29.0527 4.62617 29.3337 5.33341 29.3337H14.6667C15.374 29.3337 16.0523 29.0527 16.5524 28.5526C17.0525 28.0525 17.3334 27.3742 17.3334 26.667V13.3337C17.3334 12.6264 17.0525 11.9481 16.5524 11.448C16.0523 10.9479 15.374 10.667 14.6667 10.667H5.33341C4.62617 10.667 3.94789 10.9479 3.4478 11.448C2.9477 11.9481 2.66675 12.6264 2.66675 13.3337Z" fill="#5874B7"/>
<path d="M6.29321 10.667L6.66655 12.3203C6.73955 12.6162 6.91167 12.8781 7.15427 13.0624C7.39687 13.2468 7.6953 13.3425 7.99988 13.3337H11.9999C12.3045 13.3425 12.6029 13.2468 12.8455 13.0624C13.0881 12.8781 13.2602 12.6162 13.3332 12.3203L13.7065 10.667H6.29321Z" fill="#465D92"/>
</svg>
